<?xml version="1.0" encoding="UTF-8" standalone="no"?>
<svg width="150px" height="50px" viewBox="0 0 150 50" version="1.1" xmlns="http://www.w3.org/2000/svg" xmlns:xlink="http://www.w3.org/1999/xlink" xmlns:sketch="http://www.bohemiancoding.com/sketch/ns">
    <!-- Generator: Sketch 3.0.1 (7597) - http://www.bohemiancoding.com/sketch -->
    <title>Page-1</title>
    <description>Created with Sketch.</description>
    <defs></defs>
    <g id="Page-1" stroke="none" stroke-width="1" fill="none" fill-rule="evenodd" sketch:type="MSPage">
        <g id="Artboard-1" sketch:type="MSArtboardGroup" transform="translate(-609.000000, -4348.000000)" fill="#322E2F">
            <g id="Page-1" sketch:type="MSLayerGroup" transform="translate(609.000000, 4348.000000)">
                <path d="M5.11289549,43.75 C4.56097873,43.75 3.98001373,43.7202972 3.39904873,43.6596366 C2.12052227,43.4793282 1.51050901,43.3287225 0,42.6961789 L0.348579002,41.5210366 L0.697158006,40.0145619 L0.929544007,38.7498929 L1.45241251,38.6595296 C2.06242577,39.5932845 2.35290827,39.9551564 2.93387327,40.4069732 C3.77627253,41.039517 4.73486479,41.3708493 5.75195699,41.3708493 C7.81438276,41.3708493 9.23815047,40.1660042 9.23815047,38.3888577 C9.23815047,37.6354112 8.94766797,36.882383 8.45384771,36.3707422 C7.90193096,35.7984408 7.26286945,35.3763267 5.51997444,34.4124506 C3.25380748,33.2373083 2.49855297,32.7557886 1.68520196,31.9420998 C0.755657953,30.9782238 0.23278945,29.622773 0.23278945,28.1162983 C0.232386002,24.1398912 3.31150052,21.4285714 7.8728827,21.4285714 C8.33765471,21.4285714 8.80242671,21.4586926 9.23815047,21.5189348 C10.458177,21.6394193 11.1262867,21.8502672 12.6952956,22.4828109 L12.2886202,23.6274137 L11.8528964,25.1334701 L11.6205104,26.067225 L11.1557384,26.0973461 C10.5166769,25.1937123 10.1971462,24.8322588 9.61618117,24.4708053 C8.97711967,24.0491095 8.1347204,23.8382616 7.2919177,23.8382616 C5.51997444,23.8382616 4.35804443,24.8623799 4.35804443,26.4286785 C4.35804443,27.2118278 4.70662343,27.964856 5.31663669,28.5074546 C5.92664994,29.0195138 6.62380795,29.4412096 8.30900991,30.3147223 C10.6038217,31.4894462 11.3304314,31.9713843 12.1147342,32.9356787 C12.9571334,33.9296759 13.3928571,35.1646421 13.3928571,36.5807533 C13.3924537,40.7378873 9.93530847,43.75 5.11289549,43.75 L5.11289549,43.75 L5.11289549,43.75 Z" id="Shape" sketch:type="MSShapeGroup"></path>
                <path d="M28.5116553,34.5431428 L28.1806271,34.9200828 L26.7662334,34.9200828 L23.666187,34.8911183 L20.8971688,34.9200828 L19.4827751,34.9776094 C19.5730556,38.3668507 21.4392693,40.3078702 24.6592718,40.3078702 C25.110674,40.3078702 25.5319827,40.2789057 25.9532914,40.1920124 C26.675535,40.0761547 27.0667503,39.8734037 27.8792743,39.2941149 L28.300583,39.5258304 L27.7288069,40.8871589 L27.2774046,42.1619964 C26.795909,42.3064163 26.4046937,42.4222741 26.1338524,42.4806052 C25.0801625,42.7123206 23.8463298,42.8571429 22.8231515,42.8571429 C18.2184309,42.8571429 15.1785714,39.8738059 15.1785714,35.3255848 C15.1785714,30.8067305 18.157826,27.6785714 22.4616117,27.6785714 C26.1635278,27.6785714 28.5714243,29.908833 28.5714243,33.3270388 C28.5718422,33.6162809 28.5417488,34.0217829 28.5116553,34.5431428 L28.5116553,34.5431428 L28.5116553,34.5431428 Z M22.5596117,29.4642857 C21.5452416,29.4642857 20.7840236,29.8218101 20.2768386,30.5631868 C19.8330516,31.1950549 19.7379544,31.634997 19.6428571,33.0357143 L21.1010143,33.0357143 L23.1931529,32.9807693 C24.4928147,32.9532967 24.9999999,32.5961538 24.9999999,31.7445055 C25.0004401,30.4532967 23.9543708,29.4642857 22.5596117,29.4642857 L22.5596117,29.4642857 L22.5596117,29.4642857 Z" id="Shape" sketch:type="MSShapeGroup"></path>
                <path d="M45.919974,29.1838234 L45.4719438,30.1163025 C44.5758831,30.0561426 44.2174588,30.0260626 43.7395598,30.0260626 C43.6499538,30.0260626 43.530479,30.0260626 43.4408729,30.0561426 L43.1421861,30.0561426 C43.6499538,30.8683019 43.7694284,31.2593415 43.7694284,32.1918206 C43.7694284,35.3201378 41.3496499,37.2155939 37.2875082,37.2155939 C36.5407911,37.2155939 36.2719729,37.1855138 35.5551244,37.0346962 C34.9577505,37.5761357 34.7785385,37.8773532 34.7785385,38.2980551 C34.7785385,39.3512719 35.8538112,39.7418938 38.7514888,39.7418938 L40.274792,39.7418938 C43.6798224,39.7418938 45.3827525,41.1255725 45.3827525,43.8632679 C45.3827525,47.5334423 42.0370446,50 37.0186901,50 C33.0457396,50 30.3571429,48.2854415 30.3571429,45.7583061 C30.3571429,45.0063068 30.5960923,44.3746273 31.0441227,43.8632679 C31.4622844,43.4120682 31.7609712,43.2015084 32.8067902,42.6600689 L33.6132447,42.2385315 L33.015871,41.9978917 C31.970052,41.5767721 31.3432244,40.7646128 31.3432244,39.9223737 C31.3432244,39.2000365 31.7315173,38.5687749 32.5977094,37.8464377 L34.0915586,36.6131588 C32.3288911,35.6806797 31.5224365,34.3571609 31.5224365,32.5218648 C31.5224365,29.5134498 33.9422152,27.6785714 37.9151655,27.6785714 C39.2592565,27.6785714 40.0063886,27.7988913 41.0517927,28.189931 L43.7702581,28.159851 C44.6065814,28.159851 45.0844805,28.129771 46.2194906,28.0094511 L46.4285714,28.2801709 L45.919974,29.1838234 L45.919974,29.1838234 Z M41.8894546,44.327766 C41.1090609,43.8466656 40.2662356,43.75 37.6124634,43.75 C36.2389704,43.75 35.8955972,43.8145921 35.3020644,44.1673992 C34.3968077,44.680573 33.9285714,45.386187 33.9285714,46.2526134 C33.9285714,48.0166484 35.5830061,49.1071429 38.2055626,49.1071429 C40.9525485,49.1071429 42.8571429,47.888355 42.8571429,46.0918011 C42.8571429,45.3541137 42.5137696,44.680573 41.8894546,44.327766 L41.8894546,44.327766 L41.8894546,44.327766 Z M37.9160578,28.5714286 C37.8255741,28.5714286 37.7652516,28.6057669 37.704929,28.6057669 C36.3476722,28.7431204 35.7142857,29.738933 35.7142857,31.7653736 C35.7142857,34.2720743 36.5286398,35.7142857 38.0065416,35.7142857 C39.4245398,35.7142857 40.1785714,34.615458 40.1785714,32.554679 C40.1781526,30.01364 39.3336372,28.5714286 37.9160578,28.5714286 L37.9160578,28.5714286 L37.9160578,28.5714286 Z" id="Shape" sketch:type="MSShapeGroup"></path>
                <path d="M70.1264924,42.7946692 L67.7894063,42.7946692 L66.5469049,42.8558679 C66.635655,42.2438801 66.724816,41.7844643 66.7539885,41.4788954 C66.8431495,40.7440851 66.9318996,38.7555499 66.9318996,37.0415592 L66.9318996,34.4712106 L66.9318996,34.2871893 C66.9318996,33.1856113 66.872322,32.6348223 66.724816,32.1146327 C66.4585657,31.1966511 65.6298205,30.6152627 64.5944026,30.6152627 C63.7656575,30.6152627 62.9669065,30.9824553 62.3456558,31.6250425 C61.635655,32.3900272 61.4581548,32.9714156 61.4581548,34.899602 L61.4581548,37.0721585 C61.4581548,39.8571278 61.635655,41.5400942 62.0498222,42.8558679 L60.7481539,42.7946692 L58.4106571,42.7946692 L57.1681557,42.8558679 C57.2569057,42.2438801 57.3160724,41.7844643 57.3160724,41.4788954 C57.4048225,40.7440851 57.4935726,38.7555499 57.523156,37.0415592 L57.5527394,34.4712106 L57.5527394,34.3182136 C57.5527394,33.2166356 57.4935726,32.6046479 57.3456558,32.1146327 C57.0498222,31.1966511 56.2214878,30.6152627 55.2152425,30.6152627 C54.3573248,30.6152627 53.5881573,30.9824553 52.9664957,31.6250425 C52.2564948,32.3900272 52.0789946,33.002015 52.0789946,34.899602 L52.0789946,37.0721585 C52.0789946,39.8571278 52.2564948,41.5400942 52.670662,42.8558679 L51.3689938,42.7946692 L49.0319077,42.7946692 L47.7894063,42.8558679 C47.8781564,42.2438801 47.9373232,41.7844643 47.9669065,41.4788954 C48.0556566,40.7440851 48.1444068,38.6633268 48.1444068,37.0415592 L48.2035735,33.6144277 C48.2035735,32.1150577 48.1148234,31.0440791 47.9669065,30.4320914 C47.8189897,29.7895042 47.3752391,29.4835103 46.6652384,29.4835103 L46.4285714,29.4835103 L47.0202388,28.1065379 L48.2035735,28.0453391 L50.5702428,27.9841403 L51.9906555,27.8923422 L51.9314887,30.4937151 L53.1148234,29.4533359 C54.534825,28.2293604 55.7181597,27.6785714 57.197739,27.6785714 C59.2394022,27.6785714 60.6002372,28.6271525 61.2510712,30.5553389 L62.4935726,29.4537609 C63.8839909,28.2297854 65.096909,27.6789964 66.5469049,27.6789964 C68.08524,27.6789964 69.3281523,28.2603848 70.0973199,29.3313634 C70.7189815,30.249345 70.8960708,31.0449291 70.8664874,33.2485101 L70.8373149,37.0734335 C70.8077315,39.8584028 71.0148151,41.5413692 71.4285714,42.8571429 L70.1264924,42.7946692 L70.1264924,42.7946692 Z" id="Shape" sketch:type="MSShapeGroup"></path>
                <path d="M87.4393951,34.5427406 L87.1083666,34.9196804 L85.6939727,34.9196804 L82.5939251,34.890716 L79.825324,34.9196804 L78.4105119,34.9776094 C78.5007924,38.3668507 80.3670068,40.3078702 83.5870103,40.3078702 C84.0384127,40.3078702 84.4601395,40.2789057 84.8814483,40.1920124 C85.6041102,40.0761547 85.9949075,39.8734037 86.8074318,39.2941149 L87.2287406,39.5258304 L86.6569643,40.8871589 L86.2055619,42.1619964 C85.7240661,42.3064163 85.3328507,42.4222741 85.0620093,42.4806052 C84.0087372,42.7123206 82.774904,42.8571429 81.7517253,42.8571429 C77.1465854,42.8571429 74.1071429,39.8738059 74.1071429,35.3255848 C74.1071429,30.8067305 77.0868164,27.6785714 81.3906035,27.6785714 C85.0921028,27.6785714 87.5,29.908833 87.5,33.3270388 C87.499582,33.6158786 87.4694885,34.0213807 87.4393951,34.5427406 L87.4393951,34.5427406 L87.4393951,34.5427406 Z M81.4879436,29.4642857 C80.4732165,29.4642857 79.7129415,29.8218101 79.2053579,30.5631868 C78.7616074,31.1950549 78.666518,31.634997 78.5714286,33.0357143 L80.029466,33.0357143 L82.1218729,32.9807693 C83.421428,32.9532967 83.9285714,32.5961538 83.9285714,31.7445055 C83.9285714,30.4532967 82.8825881,29.4642857 81.4879436,29.4642857 L81.4879436,29.4642857 L81.4879436,29.4642857 Z" id="Shape" sketch:type="MSShapeGroup"></path>
                <path d="M104.037048,42.7959423 L101.668373,42.7959423 L100.409077,42.8571429 C100.499026,42.245138 100.589393,41.7857093 100.618959,41.4801318 C100.679342,40.9905279 100.709326,40.256122 100.738892,39.2764892 C100.768876,38.2972814 100.799275,37.5628755 100.799275,37.0422463 L100.799275,34.4718257 C100.799275,33.2167908 100.738892,32.6353861 100.559409,32.1151819 C100.259577,31.1971746 99.3600801,30.6157699 98.2502841,30.6157699 C97.3807704,30.6157699 96.5412399,30.9829729 95.9115921,31.625578 C95.1620112,32.3905842 94.9821118,33.002589 94.9821118,34.9002292 L94.9821118,37.0728466 C94.9821118,39.8268686 95.1624277,41.5409073 95.5817765,42.8567179 L94.2625143,42.7955173 L91.893839,42.7955173 L90.6345433,42.8567179 C90.7544763,42.244713 90.8144427,41.7852843 90.8444259,41.4797068 C90.9343756,40.7448759 91.0243253,38.6640594 91.0243253,37.0422463 L91.0847082,33.6150189 C91.0847082,32.1156069 90.9647753,31.0445984 90.8148591,30.4325935 C90.6653593,29.7899883 90.2451777,29.4839859 89.5255801,29.4839859 L89.2857143,29.4839859 L89.8853789,28.1069749 L91.0847082,28.0457744 L93.4837831,27.9845739 L94.892995,27.8927731 L94.8330285,30.4631937 L96.0623411,29.4533856 C97.5914859,28.1983506 98.7308487,27.6785714 100.289977,27.6785714 C101.909488,27.6785714 103.168783,28.2599761 103.978331,29.3309846 C104.637962,30.248992 104.817861,31.0751986 104.787878,33.248241 L104.757895,37.0732716 C104.727911,39.8583189 104.937794,41.5413323 105.357143,42.8571429 L104.037048,42.7959423 L104.037048,42.7959423 Z" id="Shape" sketch:type="MSShapeGroup"></path>
                <path d="M116.512845,28.8696043 L116.120506,29.9950093 C114.94307,29.9037945 114.520971,29.8733895 113.584974,29.8733895 L112.377779,29.8733895 L112.287239,32.6710661 L112.287239,35.8939896 L112.287239,36.1068243 C112.287239,37.6578984 112.317,38.1139724 112.468319,38.7220712 C112.709757,39.7254342 113.464255,40.303128 114.490372,40.303128 C115.15433,40.303128 115.667807,40.1511034 116.421886,39.7558391 L116.784045,39.9686737 L116.482246,40.9416318 L116.180028,42.2186391 C114.429593,42.7051182 113.553956,42.8571429 112.588619,42.8571429 C109.570628,42.8571429 108.272473,41.3368959 108.272473,37.7795181 L108.272473,36.380891 L108.302653,33.4316119 C108.332413,31.8201502 108.211694,30.755555 108.061213,30.1474563 C107.910314,29.5089526 107.487795,29.2049032 106.763058,29.2049032 L106.25,29.2049032 L106.853179,27.684234 L108.422954,27.653829 C108.422954,26.680871 108.392773,26.4068043 108.302234,25.038582 L109.44907,24.6433178 L111.320224,23.7919795 L112.346341,23.2142857 L112.67832,23.54874 C112.467061,24.9777721 112.436881,25.3730363 112.376521,27.684234 L114.458934,27.7146389 L114.640433,27.7146389 C115.63637,27.7146389 115.877809,27.684234 116.753027,27.5018043 L116.964286,27.8058537 L116.512845,28.8696043 L116.512845,28.8696043 Z" id="Shape" sketch:type="MSShapeGroup"></path>
                <path d="M121.516713,42.75 C120.103253,42.75 119.75,42.368221 119.75,40.8998401 C119.75,39.7247276 119.91057,39.0203126 120.23171,38.7262286 C120.553295,38.4325523 121.29147,38.2857143 122.448018,38.2857143 C123.893146,38.2857143 124.214286,38.6381257 124.214286,40.136282 L124.214286,40.371223 C124.214286,41.5459277 124.08583,41.9277067 123.796805,42.2507506 C123.475219,42.602754 122.801271,42.75 121.516713,42.75 Z" id="Shape" sketch:type="MSShapeGroup"></path>
                <path d="M130.838803,41.9051719 L128.498498,41.9051719 L127.254915,41.9634759 C127.344183,41.3804352 127.402599,40.9427497 127.432629,40.6516342 C127.521897,39.9515803 127.610343,37.9692415 127.610343,36.4241834 L127.669992,33.1591549 C127.669992,31.730705 127.581546,30.7103836 127.43304,30.1273428 C127.285357,29.51515 126.841074,29.2236295 126.129808,29.2236295 L125.892857,29.2236295 L126.485647,27.9117877 L127.669992,27.8534837 L130.395342,27.7660275 L131.81746,27.6785714 C131.638925,30.2443558 131.55089,31.2938293 131.55089,32.576519 L131.55089,36.4541453 C131.55089,39.1073858 131.728604,40.710748 132.142857,41.9642857 L130.838803,41.9051719 L130.838803,41.9051719 Z M131.2208,23.5327204 C131.192001,24.6806796 131.106003,25.0952204 130.817612,25.4145408 C130.50042,25.7653061 129.838036,25.8928571 128.570868,25.8928571 C127.130905,25.8928571 126.785714,25.5420918 126.785714,24.0752551 C126.785714,22.8635204 126.92931,22.1619898 127.274902,21.875 C127.592094,21.5880102 128.340474,21.4285714 129.464046,21.4285714 C130.932808,21.4285714 131.25,21.7793367 131.25,23.3103919 C131.2496,23.3732816 131.2496,23.4370571 131.2208,23.5327204 L131.2208,23.5327204 L131.2208,23.5327204 Z" id="Shape" sketch:type="MSShapeGroup"></path>
                <path d="M142.062205,42.8571429 C137.49684,42.8571429 134.821429,40.1767389 134.821429,35.5737266 C134.821429,30.8250623 137.757719,27.6785714 142.46927,27.6785714 L142.788704,27.6785714 C147.412221,27.6785714 150,30.2715841 150,34.8454659 C150,39.7397825 146.889253,42.8571429 142.062205,42.8571429 L142.062205,42.8571429 L142.062205,42.8571429 Z M142.451108,29.4642857 C142.369568,29.4642857 142.261726,29.4642857 142.153131,29.4928016 C140.205197,29.7209284 139.285714,31.4037602 139.285714,34.8545752 C139.285714,38.8471916 140.394579,41.0714286 142.396624,41.0714286 C144.480207,41.0714286 145.535714,39.2464135 145.535714,35.6526232 C145.535714,31.6889187 144.426098,29.4642857 142.451108,29.4642857 L142.451108,29.4642857 L142.451108,29.4642857 Z" id="Shape" sketch:type="MSShapeGroup"></path>
                <path d="M46.4285714,0 L46.4285714,9.82142857 L50.4867014,9.82142857 C50.9619723,9.82142857 51.389264,9.76062932 51.7685769,9.63903061 C52.1478835,9.51743212 52.4700661,9.33971095 52.7351248,9.10586735 C53.0001826,8.87202396 53.205831,8.59141171 53.3520702,8.26403061 C53.4983094,7.93665059 53.5714286,7.56717787 53.5714286,7.15561224 C53.5714286,6.80017014 53.5188742,6.48448136 53.4137647,6.20854592 C53.3086553,5.93261069 53.1647013,5.69642857 52.9819029,5.5 C52.7991045,5.30357143 52.5888856,5.14221939 52.3512476,5.01594388 C52.1136159,4.88966837 51.8622676,4.79846939 51.5972032,4.74234694 C52.0084872,4.55527196 52.3466645,4.26764441 52.6117357,3.87946429 C52.8767935,3.49129015 53.0093227,3.01191105 53.0093227,2.44132653 C53.0093227,2.0858992 52.9521979,1.75851853 52.837949,1.45918367 C52.7237001,1.15989763 52.5568961,0.902670023 52.3375377,0.6875 C52.1181793,0.472364231 51.8439814,0.303996884 51.5149438,0.182397959 C51.1859062,0.0607990342 50.8111688,0 50.3907321,0 L46.4285714,0 L46.4285714,0 Z M50.4343629,8.92857143 L47.3214286,8.92857143 L47.3214286,5.35714286 L50.4488417,5.35714286 C51.1534747,5.35714286 51.7012548,5.52049753 52.0921815,5.8472073 C52.4831081,6.17391708 52.6785714,6.60132481 52.6785714,7.12943072 C52.6785714,7.71124233 52.4855215,8.15655209 52.0994208,8.46535983 C51.7133206,8.77416756 51.1583012,8.92857143 50.4343629,8.92857143 L50.4343629,8.92857143 Z M49.9945723,4.46428571 L47.3214286,4.46428571 L47.3214286,0.892857143 L49.9945723,0.892857143 C50.5735218,0.892857143 51.016784,1.05648833 51.3243595,1.38375071 C51.6319292,1.71101309 51.7857143,2.13076266 51.7857143,2.64299943 C51.7857143,2.88961864 51.7472679,3.12202249 51.6703756,3.34021059 C51.5934833,3.55838566 51.480406,3.75047444 51.3311442,3.91647695 C51.1818823,4.08247946 50.996436,4.21528173 50.7748046,4.31488332 C50.5531732,4.41448492 50.293096,4.46428571 49.9945723,4.46428571 L49.9945723,4.46428571 Z M58.9285714,9.82142857 C59.4773413,9.82142857 59.9730039,9.73660291 60.4155603,9.56695178 C60.8581167,9.39730065 61.2342895,9.15887203 61.5440786,8.85166567 C61.8538385,8.54445931 62.0906058,8.1799385 62.2543813,7.75810324 C62.4181269,7.33626777 62.5,6.8777511 62.5,6.38255302 L62.5,0 L61.4644185,0 L61.4644185,6.47884154 C61.4644185,7.23080906 61.2387148,7.82688075 60.7873075,8.26705682 C60.3359002,8.70723289 59.7163216,8.92732093 58.9285714,8.92732093 C58.1408212,8.92732093 57.5212425,8.70723289 57.0698354,8.26705682 C56.618428,7.82688075 56.3927244,7.23080906 56.3927244,6.47884154 L56.3927244,0 L55.3571429,0 L55.3571429,6.38255302 C55.3571429,6.8777511 55.4390156,7.33626777 55.6027616,7.75810324 C55.7665075,8.1799385 56.0032749,8.54445931 56.3130643,8.85166567 C56.6228523,9.15887203 56.999025,9.39730065 57.4415826,9.56695178 C57.884139,9.73660291 58.3798016,9.82142857 58.9285714,9.82142857 L58.9285714,9.82142857 Z M66.0714286,0 L66.0714286,9.82142857 L66.9642857,9.82142857 L66.9642857,0 L66.0714286,0 L66.0714286,0 Z M68.75,0 L68.75,9.82142857 L75,9.82142857 L75,8.90943878 L69.8655606,8.90943878 L69.8655606,0 L68.75,0 L68.75,0 Z M78.9137493,0.911989796 L78.9137493,9.82142857 L80.0148221,9.82142857 L80.0148221,0.911989796 L83.0357143,0.911989796 L83.0357143,0 L75.8928571,0 L75.8928571,0.911989796 L78.9137493,0.911989796 L78.9137493,0.911989796 Z M87.5,0 L87.5,9.82142857 L91.55813,9.82142857 C92.0334009,9.82142857 92.4606926,9.76062932 92.8400055,9.63903061 C93.2193121,9.51743212 93.5414947,9.33971095 93.8065533,9.10586735 C94.0716111,8.87202396 94.2772596,8.59141171 94.4234988,8.26403061 C94.5697379,7.93665059 94.6428571,7.56717787 94.6428571,7.15561224 C94.6428571,6.80017014 94.5903028,6.48448136 94.4851933,6.20854592 C94.3800838,5.93261069 94.2361299,5.69642857 94.0533315,5.5 C93.8705331,5.30357143 93.6603142,5.14221939 93.4226762,5.01594388 C93.1850445,4.88966837 92.9336962,4.79846939 92.6686318,4.74234694 C93.0799157,4.55527196 93.4180931,4.26764441 93.6831642,3.87946429 C93.948222,3.49129015 94.0807513,3.01191105 94.0807513,2.44132653 C94.0807513,2.0858992 94.0236265,1.75851853 93.9093776,1.45918367 C93.7951287,1.15989763 93.6283247,0.902670023 93.4089663,0.6875 C93.1896079,0.472364231 92.9154099,0.303996884 92.5863724,0.182397959 C92.2573348,0.0607990342 91.8825974,0 91.4621607,0 L87.5,0 L87.5,0 Z M91.5057915,8.92857143 L88.3928571,8.92857143 L88.3928571,5.35714286 L91.5202703,5.35714286 C92.2249033,5.35714286 92.7726834,5.52049753 93.16361,5.8472073 C93.5545367,6.17391708 93.75,6.60132481 93.75,7.12943072 C93.75,7.71124233 93.5569501,8.15655209 93.1708494,8.46535983 C92.7847492,8.77416756 92.2297297,8.92857143 91.5057915,8.92857143 L91.5057915,8.92857143 Z M91.0660009,4.46428571 L88.3928571,4.46428571 L88.3928571,0.892857143 L91.0660009,0.892857143 C91.6449504,0.892857143 92.0882126,1.05648833 92.3957881,1.38375071 C92.7033578,1.71101309 92.8571429,2.13076266 92.8571429,2.64299943 C92.8571429,2.88961864 92.8186965,3.12202249 92.7418042,3.34021059 C92.6649119,3.55838566 92.5518346,3.75047444 92.4025727,3.91647695 C92.2533109,4.08247946 92.0678646,4.21528173 91.8462332,4.31488332 C91.6246018,4.41448492 91.3645245,4.46428571 91.0660009,4.46428571 L91.0660009,4.46428571 Z M98.6235119,6.10331633 L98.6235119,9.82142857 L99.5907738,9.82142857 L99.5907738,6.10331633 L102.678571,0 L101.661706,0 L99.1071429,5.10714286 L96.5525794,0 L95.5357143,0 L98.6235119,6.10331633 L98.6235119,6.10331633 Z" id="BUILT-BY" sketch:type="MSShapeGroup"></path>
            </g>
        </g>
    </g>
</svg>