<?xml version="1.0" encoding="UTF-8" standalone="no"?>
<svg width="144px" height="48px" viewBox="0 0 144 48" version="1.1" xmlns="http://www.w3.org/2000/svg" xmlns:xlink="http://www.w3.org/1999/xlink" xmlns:sketch="http://www.bohemiancoding.com/sketch/ns">
    <!-- Generator: Sketch 3.0.1 (7597) - http://www.bohemiancoding.com/sketch -->
    <title>segment-white</title>
    <description>Created with Sketch.</description>
    <defs></defs>
    <g id="Page-1" stroke="none" stroke-width="1" fill="none" fill-rule="evenodd" sketch:type="MSPage">
        <g id="Artboard-1" sketch:type="MSArtboardGroup" transform="translate(-614.000000, -683.000000)" fill="#FFFFFF">
            <g id="segment-white" sketch:type="MSLayerGroup" transform="translate(614.000000, 683.000000)">
                <g id="Page-1" sketch:type="MSShapeGroup">
                    <g id="segmentio-white" transform="translate(0.000000, 20.571429)">
                        <g id="Group">
                            <path d="M4.90837967,21.4285714 C4.37853958,21.4285714 3.82081318,21.4000568 3.26308678,21.3418226 C2.03570138,21.1687265 1.45008865,21.0241451 0,20.4169032 L0.334635842,19.2887666 L0.669271685,17.8425509 L0.892362246,16.6284686 L1.39431601,16.5417198 C1.97992874,17.4381245 2.25879194,17.7855215 2.81651834,18.2192657 C3.62522163,18.8265077 4.5454702,19.1445868 5.52187871,19.1445868 C7.50180745,19.1445868 8.86862445,17.9879355 8.86862445,16.2818748 C8.86862445,15.5585661 8.58976125,14.8356591 8.1156938,14.3444839 C7.58585372,13.7950746 6.97235468,13.389845 5.29917546,12.464524 C3.12365518,11.3363874 2.39861085,10.8741285 1.61779389,10.0929873 C0.725431635,9.16766624 0.223477872,7.86643355 0.223477872,6.42021783 C0.223090562,2.602867 3.1790405,0 7.55796739,0 C8.00414852,0 8.45032964,0.028916282 8.86862445,0.086748846 C10.0398499,0.202413974 10.6812353,0.404827948 12.1874838,1.01206987 L11.7970754,2.11088859 L11.3787806,3.55670268 L11.15569,4.45310743 L10.7095089,4.48202371 C10.0960098,3.61453525 9.78926033,3.26753987 9.23153392,2.92054449 C8.61803488,2.51571654 7.80933159,2.31330256 7.00024099,2.31330256 C5.29917546,2.31330256 4.18372265,3.29645615 4.18372265,4.80010281 C4.18372265,5.55192615 4.51835849,6.27483319 5.10397122,6.79572789 C5.68958395,7.28730468 6.35885563,7.69213263 7.97664951,8.5307048 C10.1796688,9.65843981 10.8772141,10.1211003 11.6301448,11.046823 C12.438848,12.0010603 12.8571429,13.1866278 12.8571429,14.5460946 C12.8567555,18.5369432 9.53789613,21.4285714 4.90837967,21.4285714 L4.90837967,21.4285714 L4.90837967,21.4285714 Z" id="Shape"></path>
                            <path d="M27.3711891,12.5899885 L27.053402,12.9518509 L25.6955841,12.9518509 L22.7195395,12.924045 L20.061282,12.9518509 L18.7034641,13.0070764 C18.7901334,16.2607481 20.5816986,18.1241269 23.6729009,18.1241269 C24.1062471,18.1241269 24.5107034,18.0963209 24.9151598,18.0129033 C25.6085136,17.9016799 25.9840803,17.707039 26.7641033,17.1509217 L27.1685597,17.3733687 L26.6196546,18.680244 L26.1863084,19.904088 C25.7240726,20.042731 25.3485059,20.1539545 25.0884983,20.2099524 C24.076956,20.4323992 22.8924766,20.5714286 21.9102254,20.5714286 C17.4896937,20.5714286 14.5714286,17.7074251 14.5714286,13.3411329 C14.5714286,9.00303275 17.431513,6 21.5631473,6 C25.1169867,6 27.4285673,8.14105113 27.4285673,11.4225287 C27.4289685,11.7002011 27.4000789,12.0894831 27.3711891,12.5899885 L27.3711891,12.5899885 L27.3711891,12.5899885 Z M21.6572273,7.71428571 C20.6834319,7.71428571 19.9526627,8.05750915 19.465765,8.76923077 C19.0397295,9.37582417 18.9484362,9.7981685 18.8571429,11.1428571 L20.2569737,11.1428571 L22.2654268,11.0901099 C23.5131021,11.0637362 23.9999999,10.7208791 23.9999999,9.90329671 C24.0004225,8.66373626 22.9961959,7.71428571 21.6572273,7.71428571 L21.6572273,7.71428571 L21.6572273,7.71428571 Z" id="Shape"></path>
                            <path d="M44.0831751,7.44504189 L43.653066,8.34022187 C42.7928477,8.28246832 42.4487605,8.25359155 41.9899774,8.25359155 C41.9039556,8.25359155 41.7892598,8.25359155 41.703238,8.28246832 L41.4164986,8.28246832 C41.9039556,9.06214122 42.0186513,9.43753927 42.0186513,10.3327193 C42.0186513,13.3359037 39.6956639,15.1555415 35.7960079,15.1555415 C35.0791594,15.1555415 34.8210939,15.1266647 34.1329194,14.9818798 C33.5594405,15.5016617 33.3873969,15.7908305 33.3873969,16.1947044 C33.3873969,17.2057924 34.4196588,17.5807894 37.2014293,17.5807894 L38.6638003,17.5807894 C41.9326295,17.5807894 43.5674424,18.9091211 43.5674424,21.5373086 C43.5674424,25.060676 40.3555628,27.4285714 35.5379425,27.4285714 C31.7239101,27.4285714 29.1428571,25.7825953 29.1428571,23.3565453 C29.1428571,22.634626 29.3722486,22.0282137 29.8023578,21.5373086 C30.203793,21.1041569 30.4905324,20.9020195 31.4945186,20.3822375 L32.2687149,19.9775616 L31.6952362,19.7465475 C30.69125,19.3422726 30.0894955,18.5625997 30.0894955,17.7540501 C30.0894955,17.0606065 30.4622566,16.4545953 31.293801,15.7611516 L32.7278963,14.5772039 C31.0357355,13.6820239 30.261539,12.4114459 30.261539,10.6495617 C30.261539,7.76148319 32.5845266,6 36.3985589,6 C37.6888862,6 38.4061331,6.11550709 39.409721,6.49090515 L42.0194478,6.46202838 C42.8223182,6.46202838 43.2811012,6.4331516 44.370711,6.31764451 L44.5714286,6.57753548 L44.0831751,7.44504189 L44.0831751,7.44504189 Z M40.2138764,21.9832268 C39.4646985,21.5213704 38.6555862,21.4285714 36.1079649,21.4285714 C34.7894116,21.4285714 34.4597733,21.4905799 33.8899818,21.8292747 C33.0209354,22.3219215 32.5714286,22.999311 32.5714286,23.8310803 C32.5714286,25.5245539 34.1596859,26.5714286 36.6773401,26.5714286 C39.3144466,26.5714286 41.1428571,25.4013923 41.1428571,23.6767005 C41.1428571,22.9685206 40.8132189,22.3219215 40.2138764,21.9832268 L40.2138764,21.9832268 L40.2138764,21.9832268 Z M36.3994155,6.85714286 C36.3125511,6.85714286 36.2546415,6.89010769 36.1967319,6.89010769 C34.8937653,7.02196702 34.2857143,7.97794714 34.2857143,9.92333006 C34.2857143,12.3297627 35.0674942,13.7142857 36.48628,13.7142857 C37.8475583,13.7142857 38.5714286,12.6594111 38.5714286,10.6810633 C38.5710265,8.24166579 37.7602917,6.85714286 36.3994155,6.85714286 L36.3994155,6.85714286 L36.3994155,6.85714286 Z" id="Shape"></path>
                            <path d="M67.3214327,20.5114538 L65.0778301,20.5114538 L63.8850287,20.5702046 C63.9702288,19.9826963 64.0558234,19.5416572 64.083829,19.248311 C64.1694235,18.5428932 64.2546236,16.6338994 64.2546236,14.9884683 L64.2546236,12.5209336 L64.2546236,12.3442731 C64.2546236,11.2867583 64.1974291,10.7580009 64.0558234,10.2586189 C63.800223,9.37735645 63.0046276,8.81922362 62.0106265,8.81922362 C61.2150312,8.81922362 60.4482303,9.17172856 59.8518295,9.78861223 C59.1702288,10.5229976 58.9998286,11.0811304 58.9998286,12.9321894 L58.9998286,15.0178436 C58.9998286,17.6914141 59.1702288,19.3070619 59.5678293,20.5702046 L58.3182278,20.5114538 L56.0742308,20.5114538 L54.8814294,20.5702046 C54.9666294,19.9826963 55.0234295,19.5416572 55.0234295,19.248311 C55.1086296,18.5428932 55.1938297,16.6338994 55.2222298,14.9884683 L55.2506298,12.5209336 L55.2506298,12.3740565 C55.2506298,11.3165416 55.1938297,10.7290334 55.0518295,10.2586189 C54.7678293,9.37735645 53.9726283,8.81922362 53.0066328,8.81922362 C52.1830318,8.81922362 51.444631,9.17172856 50.8478358,9.78861223 C50.166235,10.5229976 49.9958348,11.1105058 49.9958348,12.9321894 L49.9958348,15.0178436 C49.9958348,17.6914141 50.166235,19.3070619 50.5638355,20.5702046 L49.3142341,20.5114538 L47.0706314,20.5114538 L45.8778301,20.5702046 C45.9630302,19.9826963 46.0198302,19.5416572 46.0482303,19.248311 C46.1334304,18.5428932 46.2186305,16.5453651 46.2186305,14.9884683 L46.2754306,11.698422 C46.2754306,10.2590269 46.1902304,9.23088739 46.0482303,8.64337914 C45.9062301,8.02649547 45.4802296,7.73274134 44.7986288,7.73274134 L44.5714286,7.73274134 L45.1394293,6.41084779 L46.2754306,6.35209695 L48.5474331,6.29334613 L49.9110292,6.2052199 L49.8542292,8.70253795 L50.9902304,7.70377392 C52.353432,6.52875743 53.4894333,6 54.9098295,6 C56.8698261,6 58.1762277,6.91063779 58.8010284,8.76169676 L59.9938297,7.70418191 C61.3286312,6.52916541 62.4930327,6.00040799 63.8850287,6.00040799 C65.3618304,6.00040799 66.5550262,6.55854083 67.2934271,7.58668027 C67.8902223,8.46794264 68.0602279,9.23170337 68.0318279,11.3471411 L68.0038223,15.0190676 C67.9754223,17.6926381 68.1742225,19.3082859 68.5714286,20.5714286 L67.3214327,20.5114538 L67.3214327,20.5114538 Z" id="Shape"></path>
                            <path d="M83.9418193,12.5896024 L83.624032,12.9514647 L82.2662137,12.9514647 L79.2901681,12.9236588 L76.632311,12.9514647 L75.2740915,13.0070764 C75.3607607,16.2607481 77.1523265,18.1241269 80.2435299,18.1241269 C80.6768762,18.1241269 81.0817339,18.0963209 81.4861904,18.0129033 C82.1799458,17.9016799 82.5551112,17.707039 83.3351345,17.1509217 L83.739591,17.3733687 L83.1906857,18.680244 L82.7573395,19.904088 C82.2951034,20.042731 81.9195366,20.1539545 81.6595289,20.2099524 C80.6483877,20.4323992 79.4639079,20.5714286 78.4816563,20.5714286 C74.060722,20.5714286 71.1428571,17.7074251 71.1428571,13.3411329 C71.1428571,9.00303275 74.0033437,6 78.1349793,6 C81.6884187,6 84,8.14105113 84,11.4225287 C83.9995987,11.6998149 83.970709,12.0890969 83.9418193,12.5896024 L83.9418193,12.5896024 L83.9418193,12.5896024 Z M78.2284259,7.71428571 C77.2542879,7.71428571 76.5244239,8.05750915 76.0371436,8.76923077 C75.6111431,9.37582417 75.5198572,9.7981685 75.4285714,11.1428571 L76.8282873,11.1428571 L78.8369979,11.0901099 C80.0845708,11.0637362 80.5714286,10.7208791 80.5714286,9.90329671 C80.5714286,8.66373626 79.5672846,7.71428571 78.2284259,7.71428571 L78.2284259,7.71428571 L78.2284259,7.71428571 Z" id="Shape"></path>
                            <path d="M99.8755659,20.5126761 L97.6016376,20.5126761 L96.3927137,20.5714286 C96.4790654,19.9839039 96.5658169,19.5428523 96.594201,19.249498 C96.6521686,18.7794782 96.6809525,18.0744486 96.7093366,17.1340011 C96.7381205,16.1939616 96.7673042,15.4889319 96.7673042,14.9891279 L96.7673042,12.5215241 C96.7673042,11.3166906 96.7093366,10.7585421 96.537033,10.259146 C96.249194,9.37785902 95.3856769,8.81971055 94.3202727,8.81971055 C93.4855396,8.81971055 92.6795903,9.17222538 92.0751284,9.78912631 C91.3555308,10.5235322 91.1828273,11.1110569 91.1828273,12.9327915 L91.1828273,15.0185041 C91.1828273,17.6623653 91.3559306,19.3078425 91.7585054,20.5710206 L90.4920137,20.5122681 L88.2180854,20.5122681 L87.0091616,20.5710206 C87.1242972,19.9834959 87.181865,19.5424443 87.2106489,19.24909 C87.2970006,18.5436523 87.3833523,16.5460684 87.3833523,14.9891279 L87.4413199,11.6989896 C87.4413199,10.259554 87.3261843,9.23138585 87.1822647,8.64386115 C87.0387449,8.02696022 86.6353706,7.73319786 85.9445569,7.73319786 L85.7142857,7.73319786 L86.2899638,6.41126729 L87.4413199,6.35251482 L89.7444318,6.29376235 L91.0972752,6.20563364 L91.0397074,8.67323739 L92.2198475,7.70382163 C93.6878265,6.498988 94.7816148,6 96.2783776,6 C97.8331082,6 99.0420321,6.55814847 99.8191974,7.58631669 C100.452443,8.46760374 100.625147,9.26076208 100.596363,11.3468828 L100.567579,15.0189121 C100.538795,17.6925576 100.740282,19.3082505 101.142857,20.5714286 L99.8755659,20.5126761 L99.8755659,20.5126761 Z" id="Shape"></path>
                            <path d="M111.852331,7.14339153 L111.475685,8.22378034 C110.345347,8.13621412 109.940132,8.10702538 109.041575,8.10702538 L107.882667,8.10702538 L107.795749,10.7927949 L107.795749,13.8868015 L107.795749,14.0911227 C107.795749,15.5801538 107.82432,16.017985 107.969586,16.6017598 C108.201367,17.5649883 108.925685,18.1195744 109.910757,18.1195744 C110.548157,18.1195744 111.041095,17.9736306 111.76501,17.594177 L112.112683,17.7984982 L111.822956,18.7325379 L111.532827,19.958465 C109.852409,20.4254849 109.011798,20.5714286 108.085074,20.5714286 C105.187803,20.5714286 103.941574,19.1119915 103.941574,15.6969088 L103.941574,14.3542268 L103.970547,11.5229189 C103.999117,9.97591561 103.883226,8.95390428 103.738765,8.37012946 C103.593901,7.7571659 103.188283,7.46527849 102.492536,7.46527849 L102,7.46527849 L102.579052,6.00543603 L104.086035,5.97624729 C104.086035,5.04220758 104.057062,4.77910351 103.970144,3.46561017 L105.071108,3.08615654 L106.867415,2.26887179 L107.852487,1.71428571 L108.171187,2.03536186 C107.968378,3.40723269 107.939405,3.78668632 107.88146,6.00543603 L109.880577,6.03462477 L110.054816,6.03462477 C111.010915,6.03462477 111.242697,6.00543603 112.082906,5.83030359 L112.285714,6.122191 L111.852331,7.14339153 L111.852331,7.14339153 Z" id="Shape"></path>
                            <path d="M117.884932,20.949292 C117.57621,21.2872153 116.92922,21.4285714 115.696045,21.4285714 C114.339123,21.4285714 114,21.0620636 114,19.6524179 C114,18.5243099 114.154148,17.8480715 114.462441,17.5657509 C114.771163,17.2838217 115.479811,17.1428571 116.590097,17.1428571 C117.97742,17.1428571 118.285714,17.4811721 118.285714,18.9194022 L118.285714,19.1449455 C118.285714,20.272662 118.162397,20.6391699 117.884932,20.949292 L117.884932,20.949292 L117.884932,20.949292 Z" id="Shape"></path>
                            <path d="M125.605251,19.6575364 L123.358558,19.6575364 L122.164719,19.7135083 C122.250416,19.1537892 122.306495,18.7336111 122.335324,18.4541402 C122.421021,17.7820885 122.505929,15.8790433 122.505929,14.3957875 L122.563192,11.2613602 C122.563192,9.89004822 122.478284,8.91053968 122.335719,8.35082051 C122.193943,7.76311539 121.767431,7.4832558 121.084616,7.4832558 L120.857143,7.4832558 L121.426221,6.22388767 L122.563192,6.16791575 L125.179528,6.08395788 L126.544762,6 C126.373368,8.46315304 126.288855,9.47064754 126.288855,10.7020297 L126.288855,14.4245509 C126.288855,16.9716618 126.45946,18.5108895 126.857143,19.7142857 L125.605251,19.6575364 L125.605251,19.6575364 Z M125.971968,2.01998299 C125.944321,3.12202381 125.861763,3.51998299 125.584907,3.82653061 C125.280403,4.16326531 124.644514,4.28571429 123.428034,4.28571429 C122.045669,4.28571429 121.714286,3.9489796 121.714286,2.54081632 C121.714286,1.37755102 121.852138,0.704081632 122.183906,0.428571429 C122.48841,0.153061225 123.206855,0 124.285484,0 C125.695496,0 126,0.336734694 126,1.80654762 C125.999616,1.86692177 125.999616,1.92814625 125.971968,2.01998299 L125.971968,2.01998299 L125.971968,2.01998299 Z" id="Shape"></path>
                            <path d="M136.379716,20.5714286 C131.996967,20.5714286 129.428571,17.9982407 129.428571,13.579349 C129.428571,9.0206312 132.24741,6 136.770499,6 L137.077156,6 C141.515732,6 144,8.48929219 144,12.8802187 C144,17.5787626 141.013683,20.5714286 136.379716,20.5714286 L136.379716,20.5714286 L136.379716,20.5714286 Z M136.753064,7.71428571 C136.674786,7.71428571 136.571257,7.71428571 136.467006,7.74166094 C134.596989,7.96066273 133.714286,9.57618122 133.714286,12.8889636 C133.714286,16.7218753 134.778796,18.8571429 136.700759,18.8571429 C138.700999,18.8571429 139.714286,17.1051284 139.714286,13.6550897 C139.714286,9.84993341 138.649054,7.71428571 136.753064,7.71428571 L136.753064,7.71428571 L136.753064,7.71428571 Z" id="Shape"></path>
                        </g>
                    </g>
                    <path d="M44.5714286,0 L44.5714286,9.42857143 L48.4672333,9.42857143 C48.9234934,9.42857143 49.3336934,9.37020415 49.6978338,9.25346939 C50.0619682,9.13673484 50.3712635,8.96612251 50.6257198,8.74163265 C50.8801753,8.517143 51.0775978,8.24775524 51.2179874,7.93346939 C51.358377,7.61918457 51.4285714,7.26449076 51.4285714,6.86938776 C51.4285714,6.52816333 51.3781192,6.22510211 51.2772141,5.96020408 C51.1763091,5.69530626 51.0381133,5.46857143 50.8626268,5.28 C50.6871404,5.09142857 50.4853302,4.93653061 50.2571977,4.81530612 C50.0290713,4.69408163 49.7877769,4.60653061 49.5333151,4.55265306 C49.9281477,4.37306108 50.2527979,4.09693863 50.5072662,3.72428571 C50.7617217,3.35163855 50.8889498,2.89143461 50.8889498,2.34367347 C50.8889498,2.00246323 50.83411,1.68817779 50.724431,1.40081633 C50.6147521,1.11350173 50.4546202,0.866563222 50.2440362,0.66 C50.0334522,0.453469662 49.7702221,0.291837009 49.454346,0.175102041 C49.13847,0.0583670729 48.7787221,0 48.3751028,0 L44.5714286,0 L44.5714286,0 Z M48.4169884,8.57142857 L45.4285714,8.57142857 L45.4285714,5.14285714 L48.430888,5.14285714 C49.1073357,5.14285714 49.6332046,5.29967763 50.0084942,5.61331901 C50.3837838,5.92696039 50.5714286,6.33727181 50.5714286,6.84425349 C50.5714286,7.40279263 50.3861006,7.83029001 50.015444,8.12674544 C49.6447878,8.42320086 49.1119691,8.57142857 48.4169884,8.57142857 L48.4169884,8.57142857 Z M47.9947894,4.28571429 L45.4285714,4.28571429 L45.4285714,0.857142857 L47.9947894,0.857142857 C48.5505809,0.857142857 48.9761127,1.0142288 49.2713851,1.32840068 C49.566652,1.64257257 49.7142857,2.04553216 49.7142857,2.53727945 C49.7142857,2.77403389 49.6773772,2.99714159 49.6035606,3.20660216 C49.529744,3.41605023 49.4211898,3.60045547 49.2778984,3.75981787 C49.134607,3.91918028 48.9565785,4.04667046 48.7438124,4.14228799 C48.5310463,4.23790552 48.2813721,4.28571429 47.9947894,4.28571429 L47.9947894,4.28571429 Z M56.5714286,9.42857143 C57.0982476,9.42857143 57.5740837,9.34713879 57.9989379,9.18427371 C58.423792,9.02140863 58.7849179,8.79251715 59.0823155,8.49759904 C59.379685,8.20268093 59.6069816,7.85274096 59.7642061,7.44777911 C59.9214018,7.04281706 60,6.60264106 60,6.1272509 L60,0 L59.0058417,0 L59.0058417,6.21968788 C59.0058417,6.94157669 58.7891662,7.51380552 58.3558152,7.93637455 C57.9224642,8.35894358 57.3276688,8.57022809 56.5714286,8.57022809 C55.8151884,8.57022809 55.2203928,8.35894358 54.787042,7.93637455 C54.3536909,7.51380552 54.1370154,6.94157669 54.1370154,6.21968788 L54.1370154,0 L53.1428571,0 L53.1428571,6.1272509 C53.1428571,6.60264106 53.221455,7.04281706 53.3786511,7.44777911 C53.5358472,7.85274096 53.763144,8.20268093 54.0605417,8.49759904 C54.3579382,8.79251715 54.719064,9.02140863 55.1439193,9.18427371 C55.5687734,9.34713879 56.0446095,9.42857143 56.5714286,9.42857143 L56.5714286,9.42857143 Z M63.4285714,0 L63.4285714,9.42857143 L64.2857143,9.42857143 L64.2857143,0 L63.4285714,0 L63.4285714,0 Z M66,0 L66,9.42857143 L72,9.42857143 L72,8.55306122 L67.0709382,8.55306122 L67.0709382,0 L66,0 L66,0 Z M75.7571993,0.875510204 L75.7571993,9.42857143 L76.8142292,9.42857143 L76.8142292,0.875510204 L79.7142857,0.875510204 L79.7142857,0 L72.8571429,0 L72.8571429,0.875510204 L75.7571993,0.875510204 L75.7571993,0.875510204 Z M84,0 L84,9.42857143 L87.8958048,9.42857143 C88.3520649,9.42857143 88.7622649,9.37020415 89.1264053,9.25346939 C89.4905396,9.13673484 89.7998349,8.96612251 90.0542912,8.74163265 C90.3087467,8.517143 90.5061692,8.24775524 90.6465588,7.93346939 C90.7869484,7.61918457 90.8571429,7.26449076 90.8571429,6.86938776 C90.8571429,6.52816333 90.8066907,6.22510211 90.7057856,5.96020408 C90.6048805,5.69530626 90.4666847,5.46857143 90.2911982,5.28 C90.1157118,5.09142857 89.9139016,4.93653061 89.6857691,4.81530612 C89.4576427,4.69408163 89.2163483,4.60653061 88.9618865,4.55265306 C89.3567191,4.37306108 89.6813693,4.09693863 89.9358377,3.72428571 C90.1902932,3.35163855 90.3175213,2.89143461 90.3175213,2.34367347 C90.3175213,2.00246323 90.2626814,1.68817779 90.1530025,1.40081633 C90.0433235,1.11350173 89.8831917,0.866563222 89.6726076,0.66 C89.4620236,0.453469662 89.1987935,0.291837009 88.8829175,0.175102041 C88.5670414,0.0583670729 88.2072935,0 87.8036743,0 L84,0 L84,0 Z M87.8455598,8.57142857 L84.8571429,8.57142857 L84.8571429,5.14285714 L87.8594595,5.14285714 C88.5359072,5.14285714 89.0617761,5.29967763 89.4370656,5.61331901 C89.8123552,5.92696039 90,6.33727181 90,6.84425349 C90,7.40279263 89.8146721,7.83029001 89.4440154,8.12674544 C89.0733593,8.42320086 88.5405405,8.57142857 87.8455598,8.57142857 L87.8455598,8.57142857 Z M87.4233608,4.28571429 L84.8571429,4.28571429 L84.8571429,0.857142857 L87.4233608,0.857142857 C87.9791523,0.857142857 88.4046841,1.0142288 88.6999566,1.32840068 C88.9952235,1.64257257 89.1428571,2.04553216 89.1428571,2.53727945 C89.1428571,2.77403389 89.1059486,2.99714159 89.032132,3.20660216 C88.9583154,3.41605023 88.8497612,3.60045547 88.7064698,3.75981787 C88.5631785,3.91918028 88.38515,4.04667046 88.1723838,4.14228799 C87.9596177,4.23790552 87.7099436,4.28571429 87.4233608,4.28571429 L87.4233608,4.28571429 Z M94.6785714,5.85918367 L94.6785714,9.42857143 L95.6071429,9.42857143 L95.6071429,5.85918367 L98.5714286,0 L97.5952381,0 L95.1428571,4.90285714 L92.6904762,0 L91.7142857,0 L94.6785714,5.85918367 L94.6785714,5.85918367 Z" id="BUILT-BY"></path>
                </g>
            </g>
        </g>
    </g>
</svg>