<?xml version="1.0" standalone="no"?><!-- Generator: Adobe Fireworks CS6, Export SVG Extension by Aaron Beall (http://fireworks.abeall.com) . Version: 0.6.1  --><!DOCTYPE svg PUBLIC "-//W3C//DTD SVG 1.1//EN" "http://www.w3.org/Graphics/SVG/1.1/DTD/svg11.dtd"><svg  viewBox="0 0 154 20" style="background-color:#ffffff00" version="1.1"	xmlns="http://www.w3.org/2000/svg" xmlns:xlink="http://www.w3.org/1999/xlink" xml:space="preserve"	x="0px" y="0px" width="154px" height="20px">	<g>		<rect x="2" y="1" width="16" height="18" fill="#ffffff"/>		<path d="M 8.374 16.0498 C 8.3375 16.239 8.4856 16.2809 8.4856 16.2809 L 8.3474 16.3397 C 8.2051 16.401 8.0656 16.4687 7.9274 16.5393 C 7.2753 16.8734 6.7017 17.1513 5.9542 16.9917 C 6.3859 16.5643 6.007 16.0564 5.5671 15.8542 C 5.7512 15.7797 6.5349 15.9515 6.2152 15.503 C 6.6483 15.6748 7.2764 16.1114 7.7583 15.909 C 8.0703 15.7774 8.1181 15.3609 8.1475 15.0626 C 8.1791 14.7465 8.239 14.6727 7.9963 14.5012 L 7.2827 13.9975 C 6.6904 13.5793 6.2754 12.8162 5.8863 12.1988 C 5.3241 11.3068 5.1198 10.3148 5.5525 9.3156 C 5.9932 8.2983 6.8329 7.6383 7.6954 7.0173 C 7.9279 6.85 9.696 5.5961 9.3699 5.2324 C 9.2256 5.071 8.7789 5.1047 8.6 5.0999 C 8.254 5.0908 7.9248 5.1727 7.5776 5.2047 C 7.2211 5.2377 6.3972 5.3276 6.05 5.1756 C 6.05 5.1756 4.9667 4.7227 5.0449 4.181 C 5.0687 4.0164 5.1324 3.9376 5.3663 3.9358 C 5.5318 3.9344 5.6974 3.9302 5.8627 3.919 C 6.2041 3.8957 6.5471 3.8521 6.8478 3.6729 C 7.4087 3.3386 7.7551 2.7155 8.408 2.5298 C 8.9462 2.3771 9.6227 2.3639 10.098 2.6979 C 10.8511 3.2276 11.1616 4.2917 11.0975 5.1851 C 10.9815 6.8048 9.3795 7.3208 8.621 8.5367 C 10.5784 8.044 12.4504 9.5532 13.4036 11.2745 C 13.8535 12.0872 14.3495 12.4819 15.0337 13.1025 C 15.4608 13.4901 16.2467 13.3485 16.7302 13.2135 L 16.7355 13.2121 C 16.8536 13.1793 16.9703 13.1416 17.0856 13.0997 C 16.8326 14.0001 15.8516 14.7286 15.0327 15.0151 C 13.9602 15.4937 12.6486 15.3246 11.517 15.5435 C 11.7972 15.953 11.3191 16.9946 11.9308 17.1714 C 11.0833 18.0072 9.4661 18.2042 8.3453 18.1621 C 8.5052 17.9714 8.7506 17.8515 8.8278 17.5961 C 8.8539 17.354 8.5795 17.3175 8.5521 17.1006 C 8.8076 17.1061 9.3317 17.1979 9.3795 16.8177 C 9.9292 17.0304 10.5146 17.147 11.1033 17.1006 C 11.0485 16.6051 11.0233 15.9213 10.5725 15.6134 C 10.3069 15.4319 9.9298 15.4319 9.6281 15.3473 C 9.3229 15.2616 9.0251 15.1481 8.7449 14.9975 C 8.6589 15.3629 8.5638 15.7239 8.374 16.0498 ZM 2.0844 0 C 0.9332 0 0 0.9488 0 2.1191 L 0 17.8809 C 0 19.0512 0.9332 20 2.0844 20 L 16.9155 20 C 18.0668 20 19 19.0512 19 17.8809 L 19 2.1057 C 19 0.9353 18.0668 0 16.9155 0 L 2.0844 0 Z" fill="#e90475"/>	</g>	<g>		<path d="M 28 16 L 33.3281 16 C 34.3125 16 35.1719 15.8438 35.8906 15.5 C 36.6094 15.1563 37.1875 14.7031 37.6406 14.1094 C 38.0938 13.5156 38.4375 12.8281 38.6563 12.0313 C 38.875 11.25 39 10.4063 39 9.5 C 39 8.6094 38.875 7.7656 38.6563 6.9688 C 38.4375 6.1875 38.0938 5.5 37.6406 4.9063 C 37.1875 4.3125 36.6094 3.8594 35.8906 3.5156 C 35.1719 3.1719 34.3125 3 33.3281 3 L 28 3 L 28 16 L 28 16 ZM 30 5 L 32.3906 5 C 33.3281 5 34.0938 5.125 34.7031 5.3438 C 35.2969 5.5781 35.7656 5.8906 36.1094 6.2969 C 36.4531 6.7031 36.6875 7.1875 36.8125 7.7344 C 36.9375 8.2813 37 8.875 37 9.5 C 37 10.1406 36.9375 10.7344 36.8125 11.2813 C 36.6875 11.8281 36.4531 12.2969 36.1094 12.7031 C 35.7656 13.1094 35.2969 13.4375 34.7031 13.6563 C 34.0938 13.8906 33.3281 14 32.3906 14 L 30 14 L 30 5 L 30 5 Z" fill="#240d18"/>		<path d="M 42 11.125 C 42 11.9531 42.1094 12.6719 42.3594 13.2656 C 42.5938 13.875 42.9375 14.375 43.375 14.7813 C 43.8125 15.1875 44.3281 15.5 44.9531 15.7031 C 45.5625 15.9063 46.25 16 47 16 C 47.75 16 48.4219 15.9063 49.0469 15.7031 C 49.6563 15.5 50.1875 15.1875 50.625 14.7813 C 51.0625 14.375 51.3906 13.875 51.6406 13.2656 C 51.875 12.6719 52 11.9531 52 11.125 L 52 3 L 50 3 L 50 10.3438 C 50 10.7813 49.9688 11.2031 49.9375 11.6406 C 49.8906 12.0781 49.7656 12.4688 49.5781 12.8125 C 49.375 13.1563 49.0781 13.4531 48.6875 13.6719 C 48.2813 13.8906 47.7188 14 47 14 C 46.2656 14 45.7031 13.8906 45.3125 13.6719 C 44.9063 13.4531 44.6094 13.1563 44.4219 12.8125 C 44.2188 12.4688 44.0938 12.0781 44.0625 11.6406 C 44.0156 11.2031 44 10.7813 44 10.3438 L 44 3 L 42 3 L 42 11.125 L 42 11.125 Z" fill="#240d18"/>		<path d="M 65 7.5625 C 64.9219 6.875 64.75 6.25 64.4688 5.7031 C 64.1875 5.1563 63.8125 4.6719 63.3438 4.2656 C 62.875 3.8594 62.3438 3.5469 61.75 3.3281 C 61.1563 3.1094 60.5156 3 59.8281 3 C 58.9219 3 58.0938 3.1875 57.375 3.5313 C 56.6563 3.875 56.0469 4.3438 55.5469 4.9375 C 55.0469 5.5313 54.6563 6.2188 54.3906 7 C 54.125 7.7813 54 8.625 54 9.5 C 54 10.4063 54.125 11.25 54.3906 12.0313 C 54.6563 12.8125 55.0469 13.5 55.5469 14.0938 C 56.0469 14.6875 56.6563 15.1406 57.375 15.4844 C 58.0938 15.8281 58.9219 16 59.8281 16 C 60.5625 16 61.2344 15.8906 61.8438 15.6406 C 62.4531 15.3906 62.9844 15.0469 63.4375 14.6094 C 63.8906 14.1719 64.25 13.6406 64.5313 13.0313 C 64.7969 12.4219 64.9531 11.75 65 11 L 63 11 C 62.9531 11.4219 62.8594 11.8125 62.7031 12.1719 C 62.5469 12.5469 62.3281 12.8594 62.0625 13.125 C 61.7969 13.4063 61.4844 13.6094 61.1094 13.7656 C 60.7344 13.9219 60.2969 14 59.8125 14 C 59.1406 14 58.5625 13.875 58.0781 13.625 C 57.5781 13.375 57.1875 13.0313 56.8906 12.6094 C 56.5781 12.1875 56.3594 11.7031 56.2188 11.1563 C 56.0625 10.625 56 10.0625 56 9.5 C 56 8.9375 56.0625 8.3906 56.2188 7.8438 C 56.3594 7.3125 56.5781 6.8281 56.8906 6.4063 C 57.2031 5.9844 57.5938 5.6406 58.0938 5.3906 C 58.5781 5.1406 59.1563 5 59.8438 5 C 60.2969 5 60.7031 5.0781 61.0469 5.2031 C 61.3906 5.3281 61.7031 5.5156 61.9688 5.7344 C 62.2188 5.9531 62.4375 6.2188 62.6094 6.5313 C 62.7656 6.8438 62.9063 7.1875 63 7.5625 L 65 7.5625 L 65 7.5625 Z" fill="#240d18"/>		<path d="M 67 16 L 69 16 L 69 11.6875 L 70.8281 9.8594 L 75.0469 16 L 77.8438 16 L 72.3594 8.1875 L 77.4844 3 L 74.7188 3 L 69 8.8594 L 69 3 L 67 3 L 67 16 L 67 16 Z" fill="#240d18"/>		<path d="M 79 12 C 79 12.6875 79.1406 13.2969 79.4219 13.7969 C 79.7031 14.3125 80.0625 14.7344 80.5313 15.0469 C 80.9844 15.375 81.5156 15.6094 82.1406 15.7656 C 82.7656 15.9219 83.4219 16 84.125 16 C 84.7188 16 85.3125 15.9375 85.9063 15.7813 C 86.4844 15.625 87 15.3906 87.4688 15.0781 C 87.9219 14.7656 88.2969 14.3438 88.5781 13.8438 C 88.8594 13.3438 89 12.7188 89 12 C 89 11.6719 88.9375 11.3438 88.8438 11 C 88.7344 10.6719 88.5781 10.3594 88.3594 10.0625 C 88.1406 9.7813 87.8594 9.5156 87.5469 9.2969 C 87.2188 9.0781 86.8438 8.8906 86.4063 8.75 C 86.2344 8.7031 85.9531 8.625 85.5469 8.5313 C 85.1406 8.4375 84.7188 8.3281 84.2969 8.2344 C 83.875 8.1406 83.5 8.0625 83.1563 7.9844 C 82.8125 7.9063 82.625 7.8594 82.5781 7.8438 C 82.1094 7.75 81.7188 7.5781 81.4375 7.3594 C 81.1406 7.1406 81 6.8281 81 6.4375 C 81 6.1563 81.0781 5.9375 81.2656 5.75 C 81.4375 5.5625 81.6563 5.4219 81.9219 5.3125 C 82.1875 5.2031 82.4844 5.125 82.8125 5.0781 C 83.125 5.0313 83.4531 5 83.7656 5 C 84.6719 5 85.4063 5.1719 86 5.5156 C 86.5938 5.8594 86.9219 6.4531 87 7.2813 L 89 7.2813 C 89 6.6094 88.8594 6.0156 88.5781 5.4844 C 88.2969 4.9688 87.9375 4.5156 87.4688 4.1406 C 87 3.7656 86.4688 3.4688 85.8438 3.2813 C 85.2188 3.0938 84.5625 3 83.875 3 C 83.2813 3 82.6875 3.0781 82.0938 3.2188 C 81.5 3.3594 80.9844 3.5781 80.5313 3.8594 C 80.0625 4.1563 79.7031 4.5313 79.4219 4.9688 C 79.1406 5.4219 79 5.9531 79 6.5469 C 79 6.875 79.0469 7.1875 79.1406 7.4844 C 79.2344 7.7969 79.3906 8.0781 79.6094 8.3438 C 79.8281 8.625 80.1406 8.8594 80.5156 9.0781 C 80.8906 9.2969 81.3594 9.4844 81.9375 9.6094 C 82.8438 9.8438 83.625 10.0313 84.25 10.1719 C 84.875 10.3125 85.4375 10.4531 85.9063 10.6094 C 86.1719 10.7031 86.4219 10.875 86.6563 11.0938 C 86.875 11.3125 87 11.6719 87 12.1406 C 87 12.375 86.9375 12.6094 86.8438 12.8281 C 86.75 13.0469 86.5938 13.25 86.375 13.4219 C 86.1563 13.5938 85.875 13.7344 85.5313 13.8438 C 85.1875 13.9531 84.7656 14 84.2656 14 C 83.7969 14 83.375 13.9688 82.9844 13.8906 C 82.5938 13.8281 82.25 13.7031 81.9531 13.5469 C 81.6406 13.3906 81.4063 13.1719 81.25 12.9219 C 81.0781 12.6719 81 12.3594 81 12 L 79 12 L 79 12 Z" fill="#240d18"/>		<path d="M 93 5 L 96.9688 5 C 97.625 5 98.125 5.125 98.4688 5.3438 C 98.8125 5.5625 99 5.9531 99 6.5 C 99 6.9844 98.7969 7.3594 98.4063 7.6094 C 98.0156 7.875 97.5313 8 96.9688 8 L 93 8 L 93 5 L 93 5 ZM 91 16 L 96.5469 16 C 97.3281 16 98 15.9063 98.5625 15.7031 C 99.125 15.5156 99.5781 15.25 99.9531 14.9063 C 100.3125 14.5781 100.5781 14.1875 100.75 13.7188 C 100.9063 13.25 101 12.75 101 12.2188 C 101 11.2969 100.8906 10.5313 100.6719 9.9063 C 100.4531 9.2969 99.9375 8.9063 99.1563 8.7188 L 99.1563 8.6875 C 99.7344 8.4531 100.1875 8.1094 100.5156 7.6563 C 100.8281 7.2188 101 6.6875 101 6.0625 C 101 5.0313 100.6406 4.2656 99.9531 3.7656 C 99.2656 3.2656 98.3438 3 97.2031 3 L 91 3 L 91 16 L 91 16 ZM 93 10 L 96.8906 10 C 97.5469 10 98.0625 10.1719 98.4375 10.5156 C 98.8125 10.8594 99 11.3438 99 11.9688 C 99 12.625 98.8125 13.125 98.4375 13.4688 C 98.0625 13.8281 97.5469 14 96.8906 14 L 93 14 L 93 10 L 93 10 Z" fill="#240d18"/>		<path d="M 111.8125 5.3906 C 112.3125 5.6406 112.7344 5.9844 113.0625 6.4063 C 113.375 6.8281 113.6094 7.3125 113.7656 7.8438 C 113.9219 8.3906 114 8.9375 114 9.5 C 114 10.0625 113.9219 10.625 113.7656 11.1563 C 113.6094 11.7031 113.375 12.1875 113.0625 12.6094 C 112.7344 13.0313 112.3125 13.375 111.8125 13.625 C 111.2969 13.875 110.6875 14 110 14 C 109.2969 14 108.6875 13.875 108.1875 13.625 C 107.6719 13.375 107.25 13.0313 106.9375 12.6094 C 106.6094 12.1875 106.375 11.7031 106.2188 11.1563 C 106.0625 10.625 106 10.0625 106 9.5 C 106 8.9375 106.0625 8.3906 106.2188 7.8438 C 106.375 7.3125 106.6094 6.8281 106.9375 6.4063 C 107.25 5.9844 107.6719 5.6406 108.1875 5.3906 C 108.6875 5.1406 109.2969 5 110 5 C 110.6875 5 111.2969 5.1406 111.8125 5.3906 L 111.8125 5.3906 ZM 107.4844 3.5313 C 106.7344 3.875 106.1094 4.3438 105.5938 4.9375 C 105.0781 5.5313 104.6875 6.2188 104.4063 7 C 104.125 7.7813 104 8.625 104 9.5 C 104 10.4063 104.125 11.25 104.4063 12.0313 C 104.6875 12.8125 105.0781 13.5 105.5938 14.0938 C 106.1094 14.6875 106.7344 15.1406 107.4844 15.4844 C 108.2188 15.8281 109.0625 16 110 16 C 110.9375 16 111.7656 15.8281 112.5156 15.4844 C 113.25 15.1406 113.875 14.6875 114.3906 14.0938 C 114.9063 13.5 115.2969 12.8125 115.5781 12.0313 C 115.8594 11.25 116 10.4063 116 9.5 C 116 8.625 115.8594 7.7813 115.5781 7 C 115.2969 6.2188 114.9063 5.5313 114.3906 4.9375 C 113.875 4.3438 113.25 3.875 112.5156 3.5313 C 111.7656 3.1875 110.9375 3 110 3 C 109.0625 3 108.2188 3.1875 107.4844 3.5313 L 107.4844 3.5313 Z" fill="#240d18"/>		<path d="M 117 16 L 119 16 L 120.2813 13 L 125.7188 13 L 127 16 L 129 16 L 124.1563 3 L 121.8281 3 L 117 16 L 117 16 ZM 122.8906 4.9844 L 122.9531 4.9844 L 124.6875 11 L 121.1406 11 L 122.8906 4.9844 L 122.8906 4.9844 Z" fill="#240d18"/>		<path d="M 130 16 L 132 16 L 132 11 L 135.3906 11 C 135.9063 11 136.3281 11.0625 136.6719 11.1875 C 137.0156 11.3125 137.2813 11.5156 137.4844 11.7813 C 137.6719 12.0469 137.8125 12.375 137.8906 12.7813 C 137.9531 13.1875 138 13.6563 138 14.2188 C 138 14.5156 138.0156 14.8281 138.0469 15.1406 C 138.0781 15.4531 138.1719 15.75 138.3281 16 L 140.7031 16 C 140.4531 15.75 140.2813 15.3125 140.1719 14.7188 C 140.0469 14.125 140 13.4531 140 12.7031 C 140 12.2188 139.9375 11.8125 139.8125 11.4844 C 139.6875 11.1563 139.5156 10.8906 139.3281 10.6719 C 139.1406 10.4688 138.9375 10.3125 138.7188 10.2188 C 138.5 10.125 138.2813 10.0781 138.0938 10.0469 L 138.0938 10.0156 C 138.2031 9.9844 138.375 9.9063 138.6094 9.7813 C 138.8438 9.6719 139.0781 9.4844 139.3281 9.2344 C 139.5625 8.9844 139.7344 8.6406 139.8438 8.2188 C 139.9375 7.7969 140 7.2656 140 6.625 C 140 5.5 139.6563 4.6094 138.9688 3.9688 C 138.2813 3.3281 137.2656 3 135.9063 3 L 130 3 L 130 16 L 130 16 ZM 132 5 L 135.7188 5 C 136.0156 5 136.2969 5.0313 136.5781 5.0781 C 136.8438 5.125 137.0938 5.2188 137.3125 5.3594 C 137.5313 5.5156 137.6875 5.7188 137.8125 5.9688 C 137.9375 6.2188 138 6.5469 138 6.9531 C 138 7.6406 137.7969 8.1563 137.4219 8.5 C 137.0469 8.8438 136.4844 9 135.7656 9 L 132 9 L 132 5 L 132 5 Z" fill="#240d18"/>		<path d="M 143 16 L 148.3281 16 C 149.3125 16 150.1719 15.8438 150.8906 15.5 C 151.6094 15.1563 152.1875 14.7031 152.6406 14.1094 C 153.0938 13.5156 153.4375 12.8281 153.6563 12.0313 C 153.875 11.25 154 10.4063 154 9.5 C 154 8.6094 153.875 7.7656 153.6563 6.9688 C 153.4375 6.1875 153.0938 5.5 152.6406 4.9063 C 152.1875 4.3125 151.6094 3.8594 150.8906 3.5156 C 150.1719 3.1719 149.3125 3 148.3281 3 L 143 3 L 143 16 L 143 16 ZM 145 5 L 147.3906 5 C 148.3281 5 149.0938 5.125 149.7031 5.3438 C 150.2969 5.5781 150.7656 5.8906 151.1094 6.2969 C 151.4531 6.7031 151.6875 7.1875 151.8125 7.7344 C 151.9375 8.2813 152 8.875 152 9.5 C 152 10.1406 151.9375 10.7344 151.8125 11.2813 C 151.6875 11.8281 151.4531 12.2969 151.1094 12.7031 C 150.7656 13.1094 150.2969 13.4375 149.7031 13.6563 C 149.0938 13.8906 148.3281 14 147.3906 14 L 145 14 L 145 5 L 145 5 Z" fill="#240d18"/>	</g></svg>